<svg version="1.1" xmlns="http://www.w3.org/2000/svg" viewbox="0 0 64 64">
					<path
						d="M0 0 C21.12 0 42.24 0 64 0 C64 21.12 64 42.24 64 64 C42.88 64 21.76 64 0 64 C0 42.88 0 21.76 0 0 Z "
						fill="#000000" transform="translate(0,0)" />
					<path
						d="M0 0 C1.98 0 3.96 0 6 0 C5.99214478 0.84425537 5.99214478 0.84425537 5.98413086 1.70556641 C4.9009729 21.28634493 4.9009729 21.28634493 9 40 C9.64026123 39.93417725 10.28052246 39.86835449 10.94018555 39.80053711 C13.85524016 39.50520473 16.77129601 39.22124866 19.6875 38.9375 C20.69490234 38.83373047 21.70230469 38.72996094 22.74023438 38.62304688 C23.71669922 38.52958984 24.69316406 38.43613281 25.69921875 38.33984375 C27.04246216 38.20630493 27.04246216 38.20630493 28.4128418 38.07006836 C31.10245559 37.99722518 33.39116171 38.37297425 36 39 C36 40.98 36 42.96 36 45 C24.64650681 46.21086752 13.43227487 47.38178283 2 47 C-2.32621897 32.0024409 -1.82596118 15.3902442 0 0 Z "
						fill="#FCFCFC" transform="translate(12,7)" />
				</svg>