<svg version="1.1" xmlns="http://www.w3.org/2000/svg" viewbox="0 0 64 64">
					<path
						d="M0 0 C21.12 0 42.24 0 64 0 C64 21.12 64 42.24 64 64 C42.88 64 21.76 64 0 64 C0 42.88 0 21.76 0 0 Z "
						fill="#000000" transform="translate(0,0)" />
					<path
						d="M0 0 C1.7634375 -0.00773437 1.7634375 -0.00773437 3.5625 -0.015625 C7.0704744 0.25544575 9.78837355 0.81623819 13 2.25 C15.18062287 8.7918686 14.3009161 13.27396647 11.5 19.4375 C7.7224564 26.48595194 3.65471553 28.94916905 -3.6875 31.5625 C-6.59059187 32.1650285 -9.05203169 32.42866475 -12 32.25 C-12.87686585 25.51815587 -13.12387197 18.9714632 -13.0625 12.1875 C-13.05573242 10.74600586 -13.05573242 10.74600586 -13.04882812 9.27539062 C-13.03717706 6.93352578 -13.02082025 4.59179819 -13 2.25 C-8.52268535 0.53005596 -4.78853369 -0.02100234 0 0 Z "
						fill="#000000" transform="translate(26,18.75)" />
					<path
						d="M0 0 C2.71968252 3.77733684 2.55739579 8.11500041 2.125 12.5625 C0.19514577 20.96304194 -3.51451108 27.23896251 -10.61328125 32.23828125 C-17.99619254 36.56091843 -25.49258635 36.99277599 -33.875 36.5625 C-33.875 35.2425 -33.875 33.9225 -33.875 32.5625 C-33.215 32.5625 -32.555 32.5625 -31.875 32.5625 C-31.9457373 31.96751709 -32.01647461 31.37253418 -32.08935547 30.75952148 C-32.79665999 24.36083958 -33.02751737 18.05947759 -33 11.625 C-33.00386719 10.69365234 -33.00773437 9.76230469 -33.01171875 8.80273438 C-33.01042969 7.91005859 -33.00914063 7.01738281 -33.0078125 6.09765625 C-33.00668457 5.297229 -33.00555664 4.49680176 -33.00439453 3.67211914 C-32.875 1.5625 -32.875 1.5625 -31.875 -1.4375 C-22.99447647 -4.81209894 -7.89661955 -6.05407499 0 0 Z M-28.875 2.5625 C-28.90445031 5.87498078 -28.92194801 9.18742711 -28.9375 12.5 C-28.94587891 13.42619141 -28.95425781 14.35238281 -28.96289062 15.30664062 C-28.98337786 21.14550303 -28.62929787 26.77163053 -27.875 32.5625 C-20.14452355 31.87227889 -12.3548518 30.48666411 -6.875 24.5625 C-3.21298163 18.29053483 -0.98136917 12.83920822 -1.875 5.5625 C-2.38333238 3.12087433 -2.38333238 3.12087433 -3.875 1.5625 C-7.84728389 0.47914985 -11.71081023 0.39726759 -15.8125 0.375 C-16.99714844 0.36082031 -18.18179687 0.34664062 -19.40234375 0.33203125 C-22.89267466 0.56367301 -25.6251094 1.30719874 -28.875 2.5625 Z "
						fill="#FBFBFB" transform="translate(41.875,18.4375)" />
				</svg>