<svg version="1.1" xmlns="http://www.w3.org/2000/svg" viewbox="0 0 64 64">
					<path
						d="M0 0 C21.12 0 42.24 0 64 0 C64 21.12 64 42.24 64 64 C42.88 64 21.76 64 0 64 C0 42.88 0 21.76 0 0 Z "
						fill="#000000" transform="translate(0,0)" />
					<path
						d="M0 0 C0.99 0.33 1.98 0.66 3 1 C2.90460937 2.24394531 2.80921875 3.48789063 2.7109375 4.76953125 C1.16803186 20.10424234 1.16803186 20.10424234 6.125 34.1875 C9.3695012 36.23294641 11.29412826 36.75029001 15.07421875 36.47265625 C18.58972899 35.60982311 19.93249957 33.8945006 22 31 C25.04493092 24.2983391 25.51904887 17.70977574 25.6875 10.4375 C25.72166016 9.42880859 25.75582031 8.42011719 25.79101562 7.38085938 C25.87263281 4.92068432 25.94205676 2.46082691 26 0 C27.32 0 28.64 0 30 0 C30.08825361 3.47900249 30.14080635 6.95771117 30.1875 10.4375 C30.21263672 11.41138672 30.23777344 12.38527344 30.26367188 13.38867188 C30.35326747 22.31836627 28.75347882 29.9314403 23 37 C19.71979455 39.83290471 17.23424153 41.25138878 12.9375 41.4375 C7.47534207 40.83059356 5.31156638 39.1895602 1.3125 35.5625 C-3.67834181 29.25332261 -3.68831116 18.74687462 -3 11 C-1.56134454 1.56134454 -1.56134454 1.56134454 0 0 Z "
						fill="#FBFBFB" transform="translate(21,11)" />
				</svg>