<svg xmlns="http://www.w3.org/2000/svg" width="64" height="64">
  <path d="M0 0h64v64H0V0Z"/>
  <path fill="#FBFBFB" d="m21 11 3 1c-.095 1.244-.19 2.488-.29 3.77-1.542 15.334-1.542 15.334 3.415 29.418 3.245 2.045 5.17 2.562 8.95 2.285C39.59 46.61 40.931 44.895 43 42c3.045-6.702 3.519-13.29 3.688-20.563l.103-3.056c.082-2.46.151-4.92.209-7.381h4c.088 3.479.14 6.958.188 10.438l.076 2.95c.09 8.93-1.51 16.543-7.264 23.612-3.28 2.833-5.766 4.251-10.063 4.438-5.462-.607-7.625-2.248-11.624-5.876C17.322 40.254 17.311 29.747 18 22c1.439-9.439 1.439-9.439 3-11Z"/>
</svg>
