<svg xmlns="http://www.w3.org/2000/svg" width="64" height="64">
  <path d="M0 0h64v64H0V0Z"/>
  <path fill="#FCFCFC" d="M47 13c1.978 1.568 2.87 2.43 3.434 4.91.01 6.247-1.127 11.72-4.434 17.09-2.47 2.37-5.065 4.248-8 6 3.223 3.644 6.921 5.9 11.074 8.34C51 51 51 51 51.894 53.566L52 56c-2 2-2 2-4.5 2.25C45 58 45 58 43 56v-3l-1.715-.809c-3.239-1.688-6.16-3.78-9.164-5.851-2.17-1.49-2.17-1.49-5.121-2.34l-1 14-5 1c-2.087-2.087-1.4-6.496-1.535-9.383l-.13-2.568c-.09-1.801-.179-3.602-.265-5.403a2785.2 2785.2 0 0 0-.408-8.216l-.26-5.25c-.04-.814-.08-1.628-.123-2.466-.217-4.578-.318-9.131-.279-13.714 10.892-3.262 18.575-3.673 29 1Z"/>
  <path d="M44 19c.507 5.327-.733 7.825-4 12-2.41 2.703-3.538 3.846-7 5-2.333.04-4.667.044-7 0-1.148-2.297-1.116-3.583-1.098-6.133l.01-2.441.026-2.551.013-2.574c.012-2.1.03-4.2.049-6.301 7.17-1.64 12.667-.641 19 3Z"/>
</svg>
