<svg xmlns="http://www.w3.org/2000/svg" width="64" height="64">
  <path d="M0 0h64v64H0V0Z"/>
  <path d="m26 18.75 3.563-.016c3.507.271 6.225.832 9.437 2.266 2.18 6.542 1.3 11.024-1.5 17.188-3.778 7.048-7.845 9.511-15.188 12.124-2.903.603-5.364.867-8.312.688-.877-6.732-1.124-13.279-1.063-20.063l.014-2.912c.012-2.341.028-4.683.049-7.025 4.477-1.72 8.211-2.271 13-2.25Z"/>
  <path fill="#FBFBFB" d="M41.875 18.438C44.595 22.215 44.432 26.553 44 31c-1.93 8.4-5.64 14.676-12.738 19.676C23.879 54.998 16.382 55.43 8 55v-4h2l-.214-1.803c-.708-6.399-.939-12.7-.911-19.135l-.012-2.822a324496629.292 324496629.292 0 0 1 .008-5.13C9 20 9 20 10 17c8.88-3.375 23.978-4.617 31.875 1.438ZM13 21c-.03 3.312-.047 6.625-.063 9.938l-.025 2.806C12.892 39.583 13.246 45.21 14 51c7.73-.69 15.52-2.076 21-8 3.662-6.272 5.894-11.723 5-19-.508-2.442-.508-2.442-2-4-3.972-1.083-7.836-1.165-11.938-1.188l-3.59-.042C18.983 19 16.25 19.745 13 21Z"/>
</svg>
