<svg version="1.1" xmlns="http://www.w3.org/2000/svg" viewbox="0 0 64 64">
					<path
						d="M0 0 C21.12 0 42.24 0 64 0 C64 21.12 64 42.24 64 64 C42.88 64 21.76 64 0 64 C0 42.88 0 21.76 0 0 Z "
						fill="#000000" transform="translate(0,0)" />
					<path
						d="M0 0 C1.97756185 1.56841113 2.87074867 2.4305955 3.43359375 4.91015625 C3.44493082 11.15688115 2.30710979 16.63048933 -1 22 C-3.4691645 24.37020943 -6.06525188 26.24769894 -9 28 C-5.77668338 31.64374922 -2.07889945 33.89963191 2.07421875 36.33984375 C4 38 4 38 4.89453125 40.56640625 C4.94673828 41.77103516 4.94673828 41.77103516 5 43 C3 45 3 45 0.5 45.25 C-2 45 -2 45 -4 43 C-4 42.01 -4 41.02 -4 40 C-4.56589844 39.73316406 -5.13179687 39.46632812 -5.71484375 39.19140625 C-8.95356112 37.5028442 -11.87568651 35.41120441 -14.87890625 33.33984375 C-17.04891168 31.85075698 -17.04891168 31.85075698 -20 31 C-20.33 35.62 -20.66 40.24 -21 45 C-23.475 45.495 -23.475 45.495 -26 46 C-28.08731766 43.91268234 -27.40029744 39.50390171 -27.53515625 36.6171875 C-27.57813339 35.76955841 -27.62111053 34.92192932 -27.66539001 34.0486145 C-27.75578491 32.24801426 -27.84389632 30.44729819 -27.92993164 28.64648438 C-28.06095587 25.90728168 -28.19877606 23.16848999 -28.33789062 20.4296875 C-28.42488344 18.67970755 -28.5114842 16.92970806 -28.59765625 15.1796875 C-28.63826675 14.36587616 -28.67887726 13.55206482 -28.72071838 12.71359253 C-28.93758634 8.13602038 -29.03938077 3.582698 -29 -1 C-18.10786002 -4.26211299 -10.42474077 -4.67315966 0 0 Z "
						fill="#FCFCFC" transform="translate(47,13)" />
					<path
						d="M0 0 C0.50731767 5.32683552 -0.73281996 7.82526994 -4 12 C-6.41039925 14.70256885 -7.53849574 15.84616525 -11 17 C-13.33299825 17.03954234 -15.66708189 17.04401732 -18 17 C-19.1482685 14.703463 -19.11561175 13.41686833 -19.09765625 10.8671875 C-19.09443359 10.06152344 -19.09121094 9.25585938 -19.08789062 8.42578125 C-19.07951172 7.58402344 -19.07113281 6.74226563 -19.0625 5.875 C-19.05798828 5.02550781 -19.05347656 4.17601562 -19.04882812 3.30078125 C-19.03702874 1.20049091 -19.01909306 -0.8997633 -19 -3 C-11.83078978 -4.64009662 -6.33270625 -3.64130609 0 0 Z "
						fill="#000000" transform="translate(44,19)" />
				</svg>